<?xml version="1.0" standalone="no"?>
<!DOCTYPE svg PUBLIC "-//W3C//DTD SVG 20010904//EN"
 "http://www.w3.org/TR/2001/REC-SVG-20010904/DTD/svg10.dtd">
<svg version="1.0" xmlns="http://www.w3.org/2000/svg"
 width="528.000000pt" height="528.000000pt" viewBox="0 0 528.000000 528.000000"
 preserveAspectRatio="xMidYMid meet">
<metadata>
Created by potrace 1.11, written by Peter Selinger 2001-2013
</metadata>
<g transform="translate(0.000000,528.000000) scale(0.100000,-0.100000)"
fill="#000000" stroke="none">
<path d="M1321 4582 c-6 -11 -17 -27 -23 -34 -44 -47 -166 -227 -209 -308 -13
-25 -27 -47 -30 -50 -18 -15 -112 -231 -144 -330 -79 -246 -94 -447 -54 -715
49 -321 186 -600 404 -820 253 -256 544 -382 900 -390 235 -5 434 39 651 141
113 54 161 116 148 192 -10 53 -24 110 -33 136 l-10 26 -73 -26 c-40 -14 -82
-30 -93 -34 -45 -19 -279 -84 -340 -95 -16 -2 -39 -7 -50 -9 -58 -11 -140 -19
-225 -21 -325 -7 -565 109 -772 375 -75 96 -69 88 -95 135 -11 22 -30 57 -42
78 -12 21 -21 44 -21 52 0 8 -5 15 -10 15 -6 0 -9 3 -8 8 1 4 -8 39 -21 77
-13 39 -25 79 -27 90 -2 11 -6 31 -9 45 -16 79 -19 118 -19 245 0 175 7 226
45 351 26 87 75 200 102 236 l20 27 30 -57 c70 -135 185 -282 308 -398 130
-121 278 -220 462 -309 104 -49 254 -109 337 -133 153 -45 332 -107 341 -118
6 -8 17 -14 23 -14 23 0 133 -79 190 -136 100 -99 168 -228 193 -364 9 -48 10
-232 3 -268 -5 -21 -11 -53 -13 -72 -16 -115 -102 -315 -195 -455 -68 -101
-66 -99 -192 -225 -237 -237 -535 -394 -825 -436 -104 -15 -324 -8 -343 10 -3
4 56 118 158 306 32 58 81 150 110 205 30 55 63 117 74 137 11 21 18 39 15 41
-16 14 -167 69 -195 72 -59 5 -97 -38 -204 -240 -70 -133 -105 -197 -150 -275
-34 -60 -52 -92 -137 -250 -17 -30 -49 -89 -72 -131 -22 -42 -41 -78 -41 -81
0 -2 8 -4 18 -5 9 -1 35 -6 57 -12 47 -13 56 -16 150 -36 208 -44 402 -51 575
-20 14 3 41 7 60 10 84 14 262 66 345 102 240 103 436 239 609 422 88 92 87
92 128 146 21 28 41 55 46 60 78 97 220 399 246 527 3 13 7 34 10 48 21 95 29
162 32 280 2 74 6 146 8 160 3 25 33 91 45 100 4 3 18 23 31 45 13 22 28 45
32 50 5 6 23 33 40 60 55 86 249 378 286 430 165 229 342 408 516 523 104 68
109 71 136 82 51 21 106 53 123 72 17 20 15 23 -69 105 -94 93 -216 194 -279
233 -22 13 -42 27 -45 30 -23 27 -259 127 -345 146 -120 26 -280 21 -394 -13
-31 -9 -58 -18 -61 -18 -58 -16 -188 -85 -267 -142 -117 -84 -240 -203 -333
-323 -19 -25 -38 -46 -42 -48 -5 -2 -8 -10 -8 -18 0 -8 -4 -14 -10 -14 -5 0
-10 -7 -10 -15 0 -8 -4 -15 -8 -15 -4 0 -16 -15 -27 -32 -10 -18 -21 -35 -24
-38 -3 -3 -30 -40 -59 -83 -121 -181 -149 -207 -217 -207 -33 0 -239 80 -338
132 -78 41 -190 110 -213 132 -6 6 -26 22 -44 36 -41 31 -121 110 -180 180
-47 55 -148 211 -140 215 3 2 -2 11 -11 21 -22 26 -69 143 -125 309 -26 77
-53 153 -59 169 -12 28 -13 29 -24 8z m2589 -528 c65 -19 139 -57 195 -99 65
-49 67 -52 52 -67 -7 -7 -35 -42 -62 -78 -27 -36 -110 -142 -185 -235 -74 -94
-146 -185 -160 -204 -14 -18 -30 -38 -35 -44 -19 -21 -339 -428 -361 -458 -18
-25 -24 -28 -35 -17 -8 7 -50 44 -94 81 -44 38 -91 79 -105 91 -14 12 -67 57
-119 101 -52 44 -114 98 -139 121 l-45 41 58 109 c196 369 485 629 745 670 19
3 37 8 40 11 10 10 197 -7 250 -23z"/>
</g>
</svg>
